# This file uses centimeters as units for non-parametric coordinates.

mtllib 1.mtl
g default
v -0.371338 0.373057 -0.373057
v -0.371338 -0.373057 -0.373057
v -0.371338 -0.373057 0.373057
v -0.371338 0.373057 0.373057
v -0.494754 0.500000 -0.500000
v -0.494754 -0.500000 -0.500000
v -0.494754 -0.500000 0.500000
v -0.494754 0.500000 0.500000
v 0.500000 0.373057 0.373057
v 0.500000 -0.373057 0.373057
v 0.500000 -0.373057 -0.373057
v 0.500000 0.373057 -0.373057
v 0.623415 0.500000 0.500000
v 0.623415 -0.500000 0.500000
v 0.623415 -0.500000 -0.500000
v 0.623415 0.500000 -0.500000
vt 0.375000 0.250000
vt 0.625000 0.250000
vt 0.625000 0.500000
vt 0.375000 0.500000
vt 0.375000 0.250000
vt 0.625000 0.250000
vt 0.625000 0.500000
vt 0.375000 0.500000
vt 0.625000 0.250000
vt 0.625000 0.500000
vt 0.375000 0.500000
vt 0.375000 0.250000
vt 0.625000 0.250000
vt 0.625000 0.500000
vt 0.375000 0.500000
vt 0.375000 0.250000
vn 0.000000 1.000000 0.000000
vn 0.000000 1.000000 0.000000
vn 0.000000 1.000000 0.000000
vn 0.000000 1.000000 0.000000
vn 0.000000 0.000000 -1.000000
vn 0.000000 0.000000 -1.000000
vn 0.000000 0.000000 -1.000000
vn 0.000000 0.000000 -1.000000
vn 0.000000 -1.000000 0.000000
vn 0.000000 -1.000000 0.000000
vn 0.000000 -1.000000 0.000000
vn 0.000000 -1.000000 0.000000
vn 0.000000 0.000000 1.000000
vn 0.000000 0.000000 1.000000
vn 0.000000 0.000000 1.000000
vn 0.000000 0.000000 1.000000
vn 1.000000 0.000000 0.000000
vn 1.000000 0.000000 0.000000
vn 1.000000 0.000000 0.000000
vn 1.000000 0.000000 0.000000
vn -1.000000 0.000000 0.000000
vn -1.000000 0.000000 0.000000
vn -1.000000 0.000000 0.000000
vn -1.000000 0.000000 0.000000
vn -1.000000 0.000000 0.000000
vn -1.000000 0.000000 0.000000
vn -1.000000 0.000000 0.000000
vn -1.000000 0.000000 0.000000
vn 1.000000 0.000000 0.000000
vn 1.000000 0.000000 0.000000
vn 1.000000 0.000000 0.000000
vn 1.000000 0.000000 0.000000
vn 0.000000 0.000000 -1.000000
vn 0.000000 0.000000 -1.000000
vn 0.000000 0.000000 -1.000000
vn 0.000000 0.000000 -1.000000
vn 0.000000 1.000000 0.000000
vn 0.000000 1.000000 0.000000
vn 0.000000 1.000000 0.000000
vn 0.000000 1.000000 0.000000
vn 0.000000 0.000000 1.000000
vn 0.000000 0.000000 1.000000
vn 0.000000 0.000000 1.000000
vn 0.000000 0.000000 1.000000
vn 0.000000 -1.000000 0.000000
vn 0.000000 -1.000000 0.000000
vn 0.000000 -1.000000 0.000000
vn 0.000000 -1.000000 0.000000
s off
g pCube3
usemtl initialShadingGroup
f 2/2/1 3/3/2 10/9/3 11/10/4
f 3/3/5 4/4/6 9/12/7 10/9/8
f 4/4/9 1/1/10 12/11/11 9/12/12
f 1/1/13 2/2/14 11/10/15 12/11/16
f 2/2/17 1/1/18 4/4/19 3/3/20
f 6/6/21 7/7/22 8/8/23 5/5/24
f 10/9/25 9/12/26 12/11/27 11/10/28
f 14/13/29 15/14/30 16/15/31 13/16/32
f 5/5/33 16/15/34 15/14/35 6/6/36
f 8/8/37 13/16/38 16/15/39 5/5/40
f 7/7/41 14/13/42 13/16/43 8/8/44
f 6/6/45 15/14/46 14/13/47 7/7/48
